<?xml version="1.0" encoding="utf-8" ?>
<svg xmlns="http://www.w3.org/2000/svg" version="1.1" viewBox="0 0 16 16" x="0" y="0" xml:space="preserve">
  <style type="text/css">
    .eye, .nose {
      fill: #222222;
    }
    .fur-dark {
      fill: #66757f;
    }
    .fur-light {
      fill: #99aab5;
    }
  </style>
  <g>
    <ellipse class="fur-light" cx="4.5" cy="5.5" rx="2.5" ry="2" />
    <circle class="fur-dark" cx="4.5" cy="5.75" r="1.5" />
    <ellipse class="fur-light" cx="11.5" cy="5.5" rx="2.5" ry="2" />
    <circle class="fur-dark" cx="11.5" cy="5.75" r="1.5" />
    <path class="fur-light" d="M9.6,12.1c-0.5,0.3-1,0.5-1.6,0.5s-1.2-0.2-1.6-0.5c-2.2-0.5-3.6-2-3.2-4C3.7,5.6,5.8,3.4,8,3.4
	  s4.4,2.2,4.8,4.7C13.2,10.1,11.8,11.6,9.6,12.1z" />
    <circle class="eye" cx="6" cy="8.5" r="0.6" />
    <circle class="eye" cx="10" cy="8.5" r="0.6" />
    <path class="nose" d="M9.3,10c0,1.2-0.5,1.6-1.3,1.6c-0.8,0-1.3-0.4-1.2-1.6S7.3,7.8,8,7.8S9.2,8.8,9.3,10z" />
  </g>
</svg>